<svg height="30" viewBox="0 0 128 128" width="30" xmlns="http://www.w3.org/2000/svg"><g fill="#fff"><path d="M66.356 23.23a30.492 30.492 0 108.933 21.563 30.3 30.3 0 00-8.933-21.563zm-2.474 40.652a26.995 26.995 0 117.907-19.089 26.823 26.823 0 01-7.907 19.089z"/><path d="M50.644 23.338a1.75 1.75 0 10-.919 3.377 18.785 18.785 0 0113.729 16.4 1.749 1.749 0 001.741 1.595q.078 0 .156-.006a1.751 1.751 0 001.589-1.9 22.3 22.3 0 00-16.296-19.466zm-7.994-.677a22.1 22.1 0 00-6.132 1.49 1.75 1.75 0 101.3 3.248 18.572 18.572 0 015.162-1.253 1.75 1.75 0 00-.334-3.485z"/><path d="M121.311 106.4l-26.9-26.9a7.249 7.249 0 00-7.067-1.871l-9.662-9.663a40.235 40.235 0 00-61.34-51.624 40.235 40.235 0 0051.624 61.343l9.663 9.662a7.247 7.247 0 001.871 7.066l26.9 26.9a7.291 7.291 0 0010.3 0l4.616-4.616a7.292 7.292 0 00-.005-10.297zM18.816 70.77A36.737 36.737 0 0170.77 18.816 36.737 36.737 0 0118.816 70.77zm51.939 4.754c.854-.724 1.689-1.478 2.49-2.279s1.555-1.636 2.279-2.49l8.676 8.672c-.026.026-.054.048-.08.073l-4.62 4.615c-.025.026-.047.055-.073.081zm48.081 38.7l-4.615 4.615a3.789 3.789 0 01-5.349 0l-26.9-26.9a3.781 3.781 0 010-5.348l4.616-4.615a3.779 3.779 0 015.347 0l26.9 26.9a3.787 3.787 0 01.001 5.345z"/></g></svg>